<?xml version="1.0" encoding="UTF-8"?>
<svg version="1.1" xmlns="http://www.w3.org/2000/svg" width="256" height="256">
<path d="M0 0 C0.71706116 0.00337372 1.43412231 0.00674744 2.1729126 0.01022339 C13.72649726 0.08864138 24.62299511 0.93503085 35.6875 4.4375 C36.46689941 4.67887695 37.24629883 4.92025391 38.04931641 5.16894531 C70.84171979 15.60736801 97.68540504 38.00383791 113.98364258 68.3359375 C118.60901014 77.33112746 121.93560336 86.71993474 124.6875 96.4375 C125.02910156 97.61570312 125.37070313 98.79390625 125.72265625 100.0078125 C133.25650248 131.89525468 126.87463706 167.91300464 110.046875 195.7421875 C91.75837643 224.83204807 64.51176745 244.14206551 31.6875 253.4375 C30.50929687 253.77910156 29.33109375 254.12070313 28.1171875 254.47265625 C-3.77025468 262.00650248 -39.78800464 255.62463706 -67.6171875 238.796875 C-96.70704807 220.50837643 -116.01706551 193.26176745 -125.3125 160.4375 C-125.65410156 159.25929687 -125.99570313 158.08109375 -126.34765625 156.8671875 C-133.88150248 124.97974532 -127.49963706 88.96199536 -110.671875 61.1328125 C-94.3187146 35.1213193 -70.31455647 16.09504606 -41.3125 6.125 C-40.31887451 5.77924927 -40.31887451 5.77924927 -39.30517578 5.42651367 C-26.4171773 1.25758758 -13.46760823 -0.12420797 0 0 Z " fill="#76C2AF" transform="translate(128.3125,-0.4375)"/>
<path d="M0 0 C0.30733726 3.14160927 0.41960069 6.08710776 0.40405273 9.23217773 C0.41091599 10.19015762 0.41777924 11.14813751 0.42485046 12.13514709 C0.4432232 15.31811151 0.43926287 18.5005874 0.43359375 21.68359375 C0.43815365 23.89640972 0.44345865 26.10922426 0.44947815 28.32203674 C0.45843212 32.97182952 0.4559638 37.62145081 0.44604492 42.27124023 C0.43460845 48.20939829 0.45467334 54.14695699 0.48396206 60.08503628 C0.50238665 64.66207099 0.50201816 69.23896416 0.49632454 73.81602669 C0.49617179 76.00352882 0.50217767 78.19104084 0.51461601 80.37850761 C0.63838464 105.73775227 0.63838464 105.73775227 -5.91114807 113.16819763 C-11.5314453 118.58290998 -17.1867842 121.12652624 -25 121.4375 C-30.58673048 121.26989809 -33.6497159 120.53460584 -38 117 C-42.33198178 111.77940658 -42.73526922 106.93307655 -42.51171875 100.2265625 C-41.45650505 93.57307761 -37.7111876 89.05246101 -32.4375 85.0625 C-29.0513045 82.90831898 -25.85282977 81.33255919 -21.8671875 80.6171875 C-16.44580413 79.63310801 -13.54021482 78.53590024 -10 74 C-8.71225554 70.13676662 -8.76617207 66.42509463 -8.68359375 62.39453125 C-8.6524221 61.13572395 -8.6524221 61.13572395 -8.62062073 59.85148621 C-8.55525982 57.17190706 -8.49630286 54.49223031 -8.4375 51.8125 C-8.39430198 49.99543263 -8.35068727 48.17837512 -8.30664062 46.36132812 C-8.1995922 41.90765201 -8.09828681 37.45387774 -8 33 C-8.9480249 33.18062988 -9.8960498 33.36125977 -10.87280273 33.54736328 C-28.38374228 36.88159093 -45.89847519 40.1913577 -63.4375 43.375 C-64.13559784 43.50183167 -64.83369568 43.62866333 -65.552948 43.75933838 C-71.69667414 44.87459236 -77.84005903 45.97782815 -84 47 C-83.99111755 47.76484207 -83.98223511 48.52968414 -83.9730835 49.31770325 C-83.89252327 56.56930022 -83.83182725 63.82067643 -83.79275131 71.07260609 C-83.77198569 74.79982092 -83.74387389 78.52666219 -83.69824219 82.25366211 C-83.6543853 85.85877272 -83.63078028 89.46352685 -83.62049103 93.0688839 C-83.61317028 94.435855 -83.5988771 95.80280933 -83.57707977 97.16962624 C-83.40651957 108.32077889 -84.89929903 118.41827332 -92.1875 127.2734375 C-97.34925681 132.19045584 -103.05805003 134.28592917 -110.125 134.625 C-115.82241145 134.34672026 -119.90931977 133.05134676 -124 129 C-127.4017641 124.55451282 -128.73889216 119.86843051 -128.44140625 114.29296875 C-126.89669996 106.268698 -121.44820557 100.62783739 -115 96 C-112.24478995 94.43710307 -110.30699 93.84351387 -107.125 93.125 C-101.50246802 91.74549401 -98.0805127 89.65182533 -94.85522461 84.72119141 C-92.01491159 78.76621362 -92.49303723 72.55258205 -92.56640625 66.0859375 C-92.56411565 64.74410374 -92.55934656 63.40227217 -92.55223083 62.06045532 C-92.53070567 57.11449462 -92.54792006 52.16888078 -92.57373047 47.22296143 C-92.59518562 43.02859825 -92.59702116 38.83520507 -92.57081413 34.6408577 C-92.56648828 32.68551564 -92.59113921 30.73017823 -92.61634827 28.7749939 C-92.5606554 18.88948871 -92.5606554 18.88948871 -89.74414062 15.2487793 C-87.16673206 13.13663425 -85.72447081 12.09112519 -82.52734375 11.37109375 C-81.56425293 11.15050293 -80.60116211 10.92991211 -79.60888672 10.70263672 C-77.82248779 10.35483154 -77.82248779 10.35483154 -76 10 C-74.89147675 9.78383026 -74.89147675 9.78383026 -73.76055908 9.56329346 C-67.3727397 8.33089678 -60.9690388 7.19274922 -54.5625 6.0625 C-50.7716311 5.38952447 -46.98141337 4.71296629 -43.19140625 4.03515625 C-42.26051178 3.8699649 -41.32961731 3.70477356 -40.37051392 3.53457642 C-35.7161288 2.70095898 -31.07706414 1.82348717 -26.44873047 0.85498047 C-25.55709702 0.66931015 -24.66546356 0.48363983 -23.74681091 0.29234314 C-22.08089568 -0.05840525 -20.41653788 -0.41668256 -18.75428772 -0.78440857 C-5.39891724 -3.59927816 -5.39891724 -3.59927816 0 0 Z " fill="#FDFEFE" transform="translate(180,62)"/>
<path d="M0 0 C0 2.64 0 5.28 0 8 C-9.48305978 9.82754389 -18.96649808 11.65310694 -28.45042992 13.47612 C-32.85386144 14.32261805 -37.25715792 15.16980602 -41.66015625 16.01855469 C-45.90678135 16.83713386 -50.15374737 17.65392169 -54.40095901 18.4694519 C-56.02384418 18.78140058 -57.64660401 19.09400201 -59.26923752 19.40725708 C-61.53642559 19.8448317 -63.80404232 20.28011398 -66.07177734 20.71484375 C-67.36417328 20.96355225 -68.65656921 21.21226074 -69.98812866 21.46850586 C-73 22 -73 22 -75 22 C-75 19.36 -75 16.72 -75 14 C-66.84412312 11.2797794 -58.57224584 9.65310055 -50.125 8.125 C-48.72153204 7.86738549 -47.3181313 7.60940454 -45.91479492 7.35107422 C-43.03840948 6.8228676 -40.16135635 6.29853354 -37.28369141 5.77734375 C-33.80136099 5.14654328 -30.3205965 4.50759806 -26.84033203 3.86550903 C-23.66521162 3.28081627 -20.4888286 2.7030876 -17.3125 2.125 C-15.55993896 1.80233154 -15.55993896 1.80233154 -13.77197266 1.47314453 C-12.68835449 1.27833496 -11.60473633 1.08352539 -10.48828125 0.8828125 C-9.54509033 0.71152832 -8.60189941 0.54024414 -7.63012695 0.36376953 C-5.04890689 0.00676425 -2.60193395 -0.06655768 0 0 Z " fill="#68A395" transform="translate(172,95)"/>
<path d="M0 0 C0.66 0.33 1.32 0.66 2 1 C0.58070671 8.66418378 -2.19465953 15.78559124 -8.2890625 20.93359375 C-15.41740088 25.77482682 -21.40045683 26.93733931 -30 26 C-34.89227598 24.31409491 -37.97989813 21.62268182 -40.5 17.125 C-42.17224399 13.26710379 -42.34672419 10.16069034 -42 6 C-41.4225 6.7425 -40.845 7.485 -40.25 8.25 C-36.4833204 12.85371951 -33.44079395 16.52071052 -27.3359375 17.37109375 C-19.88447712 17.53821094 -14.00840744 16.65063565 -8 12 C-5.61811962 9.17831183 -3.78609061 6.222204 -2 3 C-1.34 2.01 -0.68 1.02 0 0 Z " fill="#67A394" transform="translate(94,178)"/>
<path d="M0 0 C0.33 0 0.66 0 1 0 C1.72455919 6.66594455 -0.348755 11.44056666 -4 17 C-8.42047667 21.91392523 -13.76327815 25.55406817 -20.40234375 26.46875 C-31.12602042 26.56354493 -31.12602042 26.56354493 -35.1875 23.8125 C-39.13390692 19.86609308 -40.90885387 17.85330465 -41.1875 12.1875 C-41.125625 11.135625 -41.06375 10.08375 -41 9 C-40.31164062 9.61488281 -40.31164062 9.61488281 -39.609375 10.2421875 C-38.99578125 10.78101563 -38.3821875 11.31984375 -37.75 11.875 C-37.14671875 12.40867188 -36.5434375 12.94234375 -35.921875 13.4921875 C-30.3691674 17.84858005 -24.85556238 17.81794533 -18 17 C-9.79754621 14.36390106 -5.22386483 10.14098969 -1.1875 2.625 C-0.795625 1.75875 -0.40375 0.8925 0 0 Z " fill="#68A395" transform="translate(179,165)"/>
</svg>
